# xmcd
#
# Track frame offsets:
#	150
#	17336
#	31701
#	45652
#	61070
#	76348
#	94422
#	113228
#	130827
#	151637
#	167871
#	184069
#	198500
#	215546
#	235912
#	252519
#	268213
#	282932
#	294548
#
# Disc length: 4114 seconds
#
# Revision: 1
# Processed by: cddbd v1.4PL0 Copyright (c) Steve Scherf et al.
# Submitted via: audiograbber 1.82.02
#
DISCID=09101013
DTITLE=Various Artist - Hott Country 090
DYEAR=2003
DGENRE=Country
TTITLE0=Alan Jaclson/Jimmy Buffett  - It's Five O'clock Somewhere
TTITLE1=Chris Cummings - I Get That A Lot
TTITLE2=Duane Steele - The Heart Of The Matter
TTITLE3=Heather Dawn - Beautiful People
TTITLE4=Faith Hill - One
TTITLE5=Martina McBride - This One's For The Girls
TTITLE6=Keith Urban - Who Wouldn't Want To Be Me
TTITLE7=Gary Allan - Tough Little Boys
TTITLE8=Dixie Chicks - Godspeed ( Sweet Dreams )
TTITLE9=Jennofer Hanson - Half A Heart Tattoo
TTITLE10=Patty Loveless - Lovin' All Night
TTITLE11=Brian McComas - 99.9% Sure
TTITLE12=Lonestar - Walking In Memphis
TTITLE13=Travis Tritt - Lonesome On'ry And Mean
TTITLE14=Deric Ruttan - When You Come Around
TTITLE15=Michelle Wright - Every Time You Come Around
TTITLE16=Colt Prather - The Dash
TTITLE17=John Michael Montgomery - Four Wheel Drive
TTITLE18=Diamond Rio - Wrinkles
EXTD=
EXTT0=
EXTT1=
EXTT2=
EXTT3=
EXTT4=
EXTT5=
EXTT6=
EXTT7=
EXTT8=
EXTT9=
EXTT10=
EXTT11=
EXTT12=
EXTT13=
EXTT14=
EXTT15=
EXTT16=
EXTT17=
EXTT18=
PLAYORDER=
